<svg width="550" height="445" viewBox="0 0 550 445" fill="none" xmlns="http://www.w3.org/2000/svg">
<circle cx="273" cy="219" r="200" fill="#121825"/>
<g clip-path="url(#clip0_124_1477)">
<path d="M272.493 114.239C276.109 128.007 281.57 141.048 288.657 152.957C291.344 150.851 293.972 148.862 296.514 147.003C284.358 126.104 277.373 101.836 277.373 76H267.613C267.613 101.836 260.628 126.104 248.472 147.003C251.013 148.862 253.642 150.866 256.329 152.957C263.416 141.048 268.877 128.007 272.493 114.239Z" fill="#E5D540"/>
<path d="M347.999 198.471C345.123 196.859 342.335 195.102 339.648 193.243C336.715 191.282 333.941 189.191 331.196 186.998C328.611 184.994 326.113 182.902 323.673 180.651C320.449 177.674 317.326 174.552 314.349 171.328C311.808 173.128 309.179 175.133 306.536 177.238C310.05 181.189 313.812 184.95 317.762 188.421C320.158 190.614 322.642 192.763 325.227 194.768C327.957 196.961 330.789 199.023 333.679 201.012C336.41 202.871 339.198 204.629 342.03 206.328C353.997 213.415 366.98 218.876 380.748 222.492C366.98 226.108 353.982 231.569 342.03 238.656C339.198 240.37 336.41 242.127 333.679 243.971C330.804 245.975 327.972 248.023 325.227 250.216C322.642 252.22 320.144 254.37 317.762 256.563C313.812 260.034 310.05 263.795 306.536 267.745C309.179 269.851 311.808 271.841 314.349 273.656C317.326 270.432 320.449 267.31 323.673 264.332C326.113 262.081 328.611 259.99 331.196 257.986C333.926 255.793 336.715 253.687 339.648 251.741C342.335 249.882 345.123 248.125 347.999 246.513C368.897 234.357 393.122 227.372 419.001 227.372V217.612C393.122 217.612 368.897 210.627 347.999 198.471Z" fill="#E5D540"/>
<path d="M205.353 251.741C208.287 253.702 211.061 255.793 213.806 257.986C216.391 259.99 218.889 262.081 221.328 264.332C224.553 267.31 227.675 270.432 230.652 273.656C233.194 271.855 235.822 269.851 238.466 267.745C234.951 263.795 231.19 260.034 227.239 256.563C224.843 254.37 222.36 252.22 219.775 250.216C217.044 248.023 214.212 245.961 211.322 243.971C208.592 242.112 205.803 240.355 202.971 238.656C191.005 231.569 178.021 226.108 164.253 222.492C178.021 218.876 191.019 213.415 202.971 206.328C205.803 204.614 208.592 202.857 211.322 201.012C214.198 199.008 217.03 196.961 219.775 194.768C222.36 192.763 224.858 190.614 227.239 188.421C231.19 184.95 234.951 181.189 238.466 177.238C235.822 175.133 233.194 173.143 230.652 171.328C227.675 174.552 224.553 177.674 221.328 180.651C218.889 182.902 216.391 184.994 213.806 186.998C211.075 189.191 208.287 191.297 205.353 193.243C202.667 195.102 199.878 196.859 197.003 198.471C176.104 210.627 151.88 217.612 126 217.612V227.372C151.88 227.372 176.104 234.357 197.003 246.513C199.878 248.125 202.667 249.882 205.353 251.741Z" fill="#E5D540"/>
<path d="M272.493 330.763C268.877 316.995 263.416 303.953 256.329 292.044C253.642 294.15 251.013 296.14 248.472 297.999C260.628 318.897 267.613 343.165 267.613 369.001H277.373C277.373 343.165 284.358 318.897 296.514 297.999C293.972 296.14 291.344 294.136 288.657 292.044C281.57 303.953 276.109 316.995 272.493 330.763Z" fill="#E5D540"/>
<path d="M345.253 259.759C342.377 261.705 339.545 263.811 336.8 266.062C348.912 284.274 354.475 298.724 356.915 306.93C348.709 304.49 334.259 298.928 316.047 286.815C313.462 285.058 310.775 283.199 307.987 281.195C305.445 279.336 302.904 277.39 300.217 275.241C297.777 273.28 295.236 271.189 292.651 268.996C290.85 267.427 288.991 265.772 287.088 264.058H287.045C284.707 261.909 282.354 259.716 279.958 257.363L304.225 233.095L307.348 229.973C309.686 232.369 311.937 234.765 314.043 237.06H314.086C315.742 238.962 317.412 240.821 318.966 242.68C321.696 240.487 324.528 238.381 327.418 236.435C325.56 234.242 323.613 231.991 321.464 229.697C319.358 227.402 317.165 224.904 314.827 222.522C317.165 220.126 319.373 217.643 321.464 215.348C323.613 213.053 325.56 210.802 327.418 208.609C324.543 206.649 321.711 204.558 318.966 202.365C317.398 204.224 315.742 206.082 314.086 207.985H314.043C311.937 210.28 309.701 212.676 307.348 215.072L304.225 211.95L279.958 187.682C282.354 185.344 284.692 183.136 287.045 180.987H287.088C288.991 179.273 290.85 177.618 292.651 176.049C295.236 173.856 297.777 171.75 300.217 169.804C302.904 167.655 305.445 165.709 307.987 163.85C310.775 161.846 313.462 159.987 316.047 158.229C334.259 146.117 348.709 140.555 356.915 138.115C354.475 146.321 348.912 160.771 336.8 178.983C339.531 181.234 342.363 183.325 345.253 185.286C366.296 153.989 368.983 132.887 369.128 131.711L369.913 125.117L363.319 125.901C362.143 126.047 341.055 128.733 309.744 149.777C307.159 151.491 304.472 153.335 301.742 155.397C299.2 157.256 296.615 159.202 293.972 161.352C291.489 163.298 288.947 165.404 286.348 167.655C284.155 169.456 281.904 171.46 279.653 173.566H279.609C277.271 175.671 274.918 177.908 272.522 180.261L272.478 180.217L272.435 180.261C270.038 177.923 267.7 175.671 265.347 173.566H265.304C263.053 171.46 260.816 169.47 258.609 167.655C256.024 165.404 253.482 163.312 250.984 161.352C248.341 159.202 245.756 157.256 243.215 155.397C240.484 153.35 237.797 151.491 235.212 149.777C203.916 128.733 182.814 126.047 181.637 125.901L175.044 125.117L175.828 131.711C175.973 132.887 178.66 153.974 199.704 185.286C202.579 183.34 205.411 181.234 208.156 178.983C196.044 160.771 190.482 146.321 188.042 138.115C196.247 140.555 210.698 146.117 228.909 158.229C231.495 159.987 234.181 161.846 236.97 163.85C239.511 165.709 242.053 167.655 244.739 169.804C247.179 171.765 249.721 173.856 252.306 176.049C254.107 177.618 255.966 179.273 257.868 180.987H257.912C260.25 183.136 262.603 185.329 264.999 187.682L240.731 211.95L237.609 215.072C235.271 212.676 233.019 210.28 230.914 207.985H230.87C229.214 206.082 227.544 204.224 225.99 202.365C223.26 204.558 220.428 206.663 217.538 208.609C219.397 210.802 221.343 213.053 223.492 215.348C225.598 217.643 227.791 220.141 230.129 222.522C227.791 224.919 225.584 227.402 223.492 229.697C221.343 231.991 219.397 234.242 217.538 236.435C220.414 238.396 223.246 240.487 225.99 242.68C227.559 240.821 229.214 238.962 230.87 237.06H230.914C233.019 234.765 235.256 232.369 237.609 229.973L240.731 233.095L264.999 257.363C262.603 259.701 260.264 261.909 257.912 264.058H257.868C255.966 265.772 254.107 267.427 252.306 268.996C249.721 271.189 247.179 273.295 244.739 275.241C242.053 277.39 239.511 279.336 236.97 281.195C234.181 283.199 231.495 285.058 228.909 286.815C210.698 298.928 196.247 304.49 188.042 306.93C190.482 298.724 196.044 284.274 208.156 266.062C205.426 263.811 202.594 261.72 199.704 259.759C178.66 291.056 175.973 312.158 175.828 313.334L175.044 319.928L181.637 319.143C182.814 318.998 203.901 316.311 235.212 295.268C237.797 293.554 240.484 291.71 243.215 289.647C245.756 287.788 248.341 285.842 250.984 283.693C253.468 281.747 256.009 279.641 258.609 277.39C260.802 275.589 263.053 273.585 265.304 271.479H265.347C267.686 269.373 270.038 267.137 272.435 264.784L272.478 264.828L272.522 264.784C274.918 267.122 277.256 269.373 279.609 271.479H279.653C281.904 273.585 284.14 275.575 286.348 277.39C288.933 279.641 291.474 281.732 293.972 283.693C296.615 285.842 299.2 287.788 301.742 289.647C304.472 291.695 307.159 293.554 309.744 295.268C341.041 316.311 362.143 318.998 363.319 319.143L369.913 319.928L369.128 313.334C368.983 312.158 366.296 291.071 345.253 259.759ZM275.673 246.819L272.493 250L269.312 246.819L248.167 225.674L244.986 222.493L248.167 219.313L269.312 198.167L272.493 194.987L275.673 198.167L296.819 219.313L299.999 222.493L296.819 225.674L275.673 246.819Z" fill="#E5D540"/>
</g>
<defs>
<clipPath id="clip0_124_1477">
<rect width="293" height="293" fill="white" transform="translate(126 76)"/>
</clipPath>
</defs>
</svg>
