<svg width="450" height="450" viewBox="0 0 450 450" fill="none" xmlns="http://www.w3.org/2000/svg">
<g clip-path="url(#clip0_217_1126)">
<path d="M225 450C178.824 351.029 98.9706 271.176 0 225C98.9706 178.824 178.824 99 225 0C271.176 99 351.029 178.824 450 225C351.029 271.176 271.176 351.029 225 450Z" fill="#DC2626"/>
<path d="M312.945 222.2L286.443 213.338C276.696 210.108 269.471 201.923 267.415 191.985L256.235 137.369C255.924 136.015 254.709 135 253.246 135C251.782 135 250.568 136.015 250.256 137.369L239.076 191.985C237.021 201.923 229.796 210.077 220.048 213.338L193.547 222.2C192.301 222.6 191.491 223.769 191.491 225.031C191.491 226.292 192.301 227.462 193.547 227.862L220.048 236.723C229.796 239.954 237.021 248.138 239.076 258.077L250.256 312.631C250.568 313.985 251.782 315 253.246 315C254.709 315 255.924 313.985 256.235 312.631L267.415 258.077C269.471 248.138 276.696 239.985 286.443 236.723L312.945 227.862C314.19 227.462 315 226.292 315 225.031C315 223.769 314.19 222.6 312.945 222.2Z" fill="#FFFDF7"/>
<path d="M170.471 172.138L179.813 175.277C183.239 176.446 185.824 179.277 186.54 182.846L190.495 202.108C190.588 202.6 190.993 202.969 191.523 202.969C192.052 202.969 192.457 202.6 192.55 202.108L196.505 182.846C197.221 179.338 199.775 176.446 203.232 175.277L212.574 172.138C212.979 171.985 213.291 171.585 213.291 171.123C213.291 170.661 212.979 170.261 212.574 170.108L203.232 166.969C199.806 165.8 197.221 162.969 196.505 159.4L192.55 140.138C192.457 139.646 192.052 139.277 191.523 139.277C190.993 139.277 190.588 139.646 190.495 140.138L186.54 159.4C185.824 162.908 183.27 165.8 179.813 166.969L170.471 170.108C170.066 170.261 169.754 170.661 169.754 171.123C169.754 171.585 170.066 171.985 170.471 172.138V172.138Z" fill="#FFFDF7"/>
<path d="M192.27 266.816L179.751 262.6C175.142 261.093 171.685 257.216 170.782 252.508L165.488 226.693C165.332 226.047 164.772 225.585 164.118 225.585C163.464 225.585 162.841 226.047 162.747 226.693L157.453 252.508C156.488 257.216 153.031 261.062 148.484 262.6L135.965 266.816C135.405 267.031 135 267.523 135 268.139C135 268.754 135.405 269.308 135.965 269.462L148.484 273.677C153.093 275.185 156.55 279.062 157.453 283.77L162.747 309.585C162.903 310.231 163.464 310.693 164.118 310.693C164.772 310.693 165.394 310.231 165.488 309.585L170.782 283.77C171.747 279.062 175.204 275.216 179.751 273.677L192.27 269.462C192.83 269.247 193.235 268.754 193.235 268.139C193.235 267.523 192.83 266.97 192.27 266.816V266.816Z" fill="#FFFDF7"/>
</g>
<defs>
<clipPath id="clip0_217_1126">
<rect width="450" height="450" fill="white"/>
</clipPath>
</defs>
</svg>
