<svg width="450" height="450" viewBox="0 0 450 450" fill="none" xmlns="http://www.w3.org/2000/svg">
<g clip-path="url(#clip0_150_1342)">
<path d="M340.954 188.096C336.542 185.624 332.254 182.917 328.123 180.069C323.617 177.065 319.361 173.841 315.136 170.477C311.162 167.395 307.328 164.187 303.588 160.729C298.644 156.16 293.84 151.356 289.271 146.412C285.375 149.181 281.338 152.248 277.27 155.487C282.668 161.558 288.442 167.332 294.513 172.668C298.19 176.032 302.008 179.333 305.982 182.416C310.176 185.78 314.526 188.957 318.97 192.008C323.163 194.871 327.451 197.563 331.8 200.176C350.186 211.066 370.121 219.453 391.26 225.008C370.121 230.563 350.155 238.95 331.8 249.824C327.451 252.453 323.163 255.16 318.97 257.992C314.557 261.075 310.207 264.22 305.982 267.584C302.008 270.667 298.174 273.968 294.513 277.332C288.442 282.668 282.668 288.442 277.27 294.513C281.322 297.752 285.359 300.803 289.271 303.589C293.84 298.628 298.644 293.84 303.588 289.271C307.328 285.813 311.177 282.606 315.136 279.523C319.33 276.159 323.617 272.92 328.123 269.931C332.254 267.083 336.526 264.376 340.954 261.904C373.047 243.237 410.256 232.503 450 232.503V217.513C410.256 217.513 373.047 206.779 340.954 188.112V188.096Z" fill="#E5D540"/>
<path d="M121.877 269.916C126.383 272.92 130.639 276.143 134.864 279.507C138.838 282.59 142.672 285.798 146.412 289.256C151.356 293.825 156.16 298.628 160.729 303.573C164.625 300.803 168.662 297.721 172.73 294.497C167.332 288.426 161.558 282.652 155.487 277.317C151.81 273.953 147.992 270.651 144.018 267.569C139.824 264.204 135.474 261.028 131.03 257.977C126.837 255.129 122.549 252.422 118.2 249.809C99.814 238.918 79.8793 230.531 58.7399 224.992C79.8793 219.437 99.8453 211.051 118.2 200.16C122.549 197.531 126.837 194.824 131.03 191.992C135.443 188.91 139.793 185.765 144.018 182.4C147.992 179.318 151.826 176.016 155.487 172.652C161.558 167.316 167.332 161.543 172.73 155.471C168.678 152.232 164.641 149.181 160.729 146.396C156.16 151.341 151.356 156.144 146.412 160.713C142.672 164.171 138.823 167.379 134.864 170.462C130.67 173.826 126.383 177.065 121.877 180.053C117.746 182.901 113.474 185.608 109.046 188.08C76.9533 206.748 39.7441 217.482 0 217.482V232.472C39.7441 232.472 76.9533 243.206 109.046 261.873C113.458 264.345 117.746 267.052 121.877 269.9V269.916Z" fill="#E5D540"/>
<path d="M113.192 167.848C117.605 164.86 121.955 161.621 126.18 158.163C107.575 130.185 99.0316 107.998 95.2919 95.4015C107.888 99.1412 130.076 107.685 158.053 126.289C162.028 128.981 166.143 131.844 170.43 134.926C174.264 137.727 178.113 140.669 182.181 143.908C185.232 140.027 188.659 135.552 191.883 130.999C195.012 126.602 197.954 122.143 200.176 118.184C211.066 99.8922 219.453 79.8637 225.008 58.7242C230.563 79.8637 238.95 99.8922 249.824 118.184C252.046 122.143 254.972 126.586 258.102 130.983C261.325 135.521 264.752 140.012 267.803 143.877C271.856 140.653 275.674 137.712 279.507 134.911C283.795 131.828 287.926 128.965 291.9 126.274C319.862 107.669 342.065 99.1255 354.661 95.3858C350.906 107.982 342.362 130.17 323.773 158.147C327.967 161.605 332.317 164.813 336.745 167.833C369.072 119.764 373.188 87.3431 373.422 85.5437L374.627 75.4199L364.503 76.6247C362.688 76.8438 330.298 80.9747 282.214 113.286C278.365 115.837 274.375 118.606 270.307 121.642C267.506 117.652 264.642 113.396 261.904 109.03C243.237 76.9377 232.503 39.6659 232.503 -0.015625H217.513C217.513 39.6659 206.779 76.9377 188.112 109.03C185.358 113.427 182.494 117.668 179.678 121.658C175.609 118.622 171.604 115.837 167.754 113.286C119.686 80.9747 87.2649 76.8438 85.4654 76.6247L75.3416 75.4199L76.5465 85.5437C76.7655 87.3431 80.8964 119.733 113.208 167.833L113.192 167.848Z" fill="#E5D540"/>
<path d="M336.729 282.214C332.317 285.203 327.967 288.442 323.758 291.9C342.347 319.862 350.89 342.065 354.646 354.661C342.049 350.922 319.846 342.378 291.884 323.774C287.91 321.067 283.779 318.219 279.492 315.136C275.658 312.335 271.809 309.378 267.741 306.139C264.689 310.02 261.263 314.495 258.039 319.032C254.925 323.414 252.015 327.826 249.809 331.785V331.816C238.918 350.092 230.531 370.121 224.992 391.276C219.437 370.136 211.05 350.108 200.16 331.816V331.785C197.985 327.873 195.106 323.492 192.039 319.158C192.008 319.111 191.961 319.079 191.929 319.032C188.706 314.495 185.295 310.004 182.244 306.139C178.16 309.394 174.295 312.351 170.446 315.168C170.352 315.23 170.258 315.308 170.164 315.371C165.971 318.375 161.949 321.16 158.069 323.805C130.091 342.409 107.904 350.953 95.3076 354.693C99.0473 342.096 107.591 319.893 126.195 291.931C122.002 288.473 117.652 285.266 113.208 282.246C80.8964 330.314 76.7655 362.72 76.5465 364.535L75.3416 374.658L85.4654 373.454C87.2649 373.235 119.655 369.104 167.754 336.792C171.619 334.21 175.641 331.456 179.74 328.374C182.51 332.348 185.373 336.589 188.112 340.954H188.143L188.112 340.986C206.779 373.078 217.513 410.35 217.513 450.031H232.503C232.503 410.35 243.237 373.078 261.904 340.986L261.873 340.954H261.904C264.642 336.604 267.49 332.364 270.275 328.405C274.359 331.456 278.365 334.226 282.23 336.808C330.298 369.119 362.704 373.25 364.519 373.469L374.643 374.674L373.438 364.55C373.203 362.735 369.088 330.361 336.761 282.261L336.729 282.214Z" fill="#E5D540"/>
<path d="M224.992 344.96C200.426 292.307 157.944 249.825 105.291 225.258C157.944 200.692 200.426 158.225 224.992 105.557C249.558 158.225 292.041 200.692 344.694 225.258C292.041 249.825 249.558 292.307 224.992 344.96Z" fill="#DC2626"/>
<path d="M269.196 223.834L255.88 219.328C250.982 217.685 247.352 213.523 246.319 208.469L240.702 180.695C240.546 180.006 239.935 179.49 239.2 179.49C238.465 179.49 237.854 180.006 237.698 180.695L232.08 208.469C231.048 213.523 227.418 217.669 222.52 219.328L209.204 223.834C208.578 224.038 208.171 224.632 208.171 225.274C208.171 225.915 208.578 226.51 209.204 226.713L222.52 231.22C227.418 232.863 231.048 237.025 232.08 242.079L237.698 269.822C237.854 270.51 238.465 271.027 239.2 271.027C239.935 271.027 240.546 270.51 240.702 269.822L246.319 242.079C247.352 237.025 250.982 232.879 255.88 231.22L269.196 226.713C269.822 226.51 270.228 225.915 270.228 225.274C270.228 224.632 269.822 224.038 269.196 223.834Z" fill="#FFFDF7"/>
<path d="M197.609 198.376L202.304 199.972C204.025 200.567 205.324 202.006 205.683 203.822L207.671 213.617C207.718 213.867 207.921 214.055 208.187 214.055C208.453 214.055 208.656 213.867 208.703 213.617L210.691 203.822C211.05 202.038 212.334 200.567 214.07 199.972L218.765 198.376C218.968 198.298 219.124 198.095 219.124 197.86C219.124 197.625 218.968 197.422 218.765 197.344L214.07 195.748C212.349 195.153 211.05 193.713 210.691 191.898L208.703 182.103C208.656 181.853 208.453 181.665 208.187 181.665C207.921 181.665 207.718 181.853 207.671 182.103L205.683 191.898C205.324 193.682 204.04 195.153 202.304 195.748L197.609 197.344C197.406 197.422 197.25 197.625 197.25 197.86C197.25 198.095 197.406 198.298 197.609 198.376Z" fill="#FFFDF7"/>
<path d="M208.563 246.523L202.272 244.379C199.957 243.613 198.22 241.641 197.766 239.247L195.106 226.119C195.028 225.79 194.746 225.556 194.417 225.556C194.089 225.556 193.776 225.79 193.729 226.119L191.069 239.247C190.584 241.641 188.847 243.597 186.563 244.379L180.272 246.523C179.991 246.633 179.787 246.883 179.787 247.196C179.787 247.509 179.991 247.79 180.272 247.869L186.563 250.012C188.878 250.779 190.615 252.751 191.069 255.145L193.729 268.273C193.807 268.601 194.089 268.836 194.417 268.836C194.746 268.836 195.059 268.601 195.106 268.273L197.766 255.145C198.251 252.751 199.988 250.795 202.272 250.012L208.563 247.869C208.844 247.759 209.048 247.509 209.048 247.196C209.048 246.883 208.844 246.601 208.563 246.523Z" fill="#FFFDF7"/>
</g>
<defs>
<clipPath id="clip0_150_1342">
<rect width="450" height="450" fill="white"/>
</clipPath>
</defs>
</svg>
