<svg width="187" height="41" viewBox="0 0 187 41" fill="none" xmlns="http://www.w3.org/2000/svg">
<g clip-path="url(#clip0_121_1854)">
<path d="M20.499 5.35083C21.005 7.27737 21.7691 9.10231 22.7608 10.7687C23.1368 10.4741 23.5046 10.1956 23.8603 9.93551C22.1593 7.01115 21.1818 3.61532 21.1818 0H19.8162C19.8162 3.61532 18.8387 7.01115 17.1377 9.93551C17.4933 10.1956 17.8612 10.4761 18.2371 10.7687C19.2288 9.10231 19.993 7.27737 20.499 5.35083V5.35083Z" fill="#E5D540"/>
<path d="M31.0645 17.1377C30.6621 16.9121 30.2719 16.6662 29.896 16.4061C29.4854 16.1317 29.0973 15.8391 28.7132 15.5322C28.3515 15.2518 28.0019 14.9592 27.6605 14.6442C27.2094 14.2276 26.7724 13.7906 26.3558 13.3395C26.0002 13.5915 25.6324 13.8719 25.2625 14.1666C25.7543 14.7194 26.2806 15.2457 26.8334 15.7314C27.1687 16.0383 27.5162 16.339 27.878 16.6195C28.26 16.9263 28.6563 17.2149 29.0607 17.4933C29.4428 17.7535 29.833 17.9994 30.2292 18.2371C31.9038 19.2288 33.7206 19.993 35.6471 20.499C33.7206 21.005 31.9018 21.7691 30.2292 22.7608C29.833 23.0006 29.4428 23.2465 29.0607 23.5046C28.6583 23.7851 28.262 24.0716 27.878 24.3785C27.5162 24.6589 27.1667 24.9597 26.8334 25.2666C26.2806 25.7523 25.7543 26.2786 25.2625 26.8314C25.6324 27.126 26.0002 27.4045 26.3558 27.6585C26.7724 27.2073 27.2094 26.7704 27.6605 26.3538C28.0019 26.0388 28.3515 25.7462 28.7132 25.4657C29.0953 25.1589 29.4854 24.8642 29.896 24.5919C30.2719 24.3317 30.6621 24.0858 31.0645 23.8603C33.9888 22.1593 37.3786 21.1818 41 21.1818V19.8162C37.3786 19.8162 33.9888 18.8387 31.0645 17.1377V17.1377Z" fill="#E5D540"/>
<path d="M11.104 24.5919C11.5145 24.8662 11.9027 25.1589 12.2868 25.4657C12.6485 25.7462 12.9981 26.0388 13.3395 26.3538C13.7906 26.7704 14.2276 27.2073 14.6442 27.6585C14.9998 27.4065 15.3676 27.126 15.7375 26.8314C15.2457 26.2786 14.7194 25.7523 14.1666 25.2666C13.8313 24.9597 13.4838 24.6589 13.122 24.3785C12.74 24.0716 12.3437 23.783 11.9393 23.5046C11.5572 23.2445 11.167 22.9986 10.7708 22.7608C9.09621 21.7691 7.27941 21.005 5.35286 20.499C7.27941 19.993 9.09824 19.2288 10.7708 18.2371C11.167 17.9973 11.5572 17.7514 11.9393 17.4933C12.3417 17.2129 12.7379 16.9263 13.122 16.6195C13.4838 16.339 13.8333 16.0383 14.1666 15.7314C14.7194 15.2457 15.2457 14.7194 15.7375 14.1666C15.3676 13.8719 14.9998 13.5935 14.6442 13.3395C14.2276 13.7906 13.7906 14.2276 13.3395 14.6442C12.9981 14.9592 12.6485 15.2518 12.2868 15.5322C11.9047 15.8391 11.5145 16.1338 11.104 16.4061C10.7281 16.6662 10.3379 16.9121 9.93551 17.1377C7.01115 18.8387 3.62141 19.8162 0 19.8162V21.1818C3.62141 21.1818 7.01115 22.1593 9.93551 23.8603C10.3379 24.0858 10.7281 24.3317 11.104 24.5919V24.5919Z" fill="#E5D540"/>
<path d="M20.499 35.6492C19.993 33.7226 19.2288 31.8977 18.2371 30.2313C17.8612 30.5259 17.4933 30.8043 17.1377 31.0645C18.8387 33.9888 19.8162 37.3847 19.8162 41H21.1818C21.1818 37.3847 22.1593 33.9888 23.8603 31.0645C23.5046 30.8043 23.1368 30.5239 22.7608 30.2313C21.7691 31.8977 21.005 33.7226 20.499 35.6492V35.6492Z" fill="#E5D540"/>
<path d="M30.6804 25.7136C30.278 25.986 29.8817 26.2806 29.4976 26.5956C31.1925 29.144 31.9708 31.1661 32.3123 32.3143C31.1641 31.9729 29.142 31.1945 26.5936 29.4997C26.2319 29.2538 25.8559 28.9936 25.4657 28.7132C25.1101 28.4531 24.7544 28.1808 24.3785 27.88C24.0371 27.6056 23.6814 27.313 23.3197 27.0061C23.0677 26.7867 22.8076 26.555 22.5414 26.3152H22.5353C22.2081 26.0144 21.8789 25.7076 21.5435 25.3783L24.9394 21.9825L25.3763 21.5456C25.7035 21.8809 26.0185 22.2162 26.3131 22.5373H26.3192C26.5509 22.8035 26.7846 23.0636 27.0021 23.3238C27.3841 23.0169 27.7804 22.7222 28.1848 22.4499C27.9247 22.143 27.6524 21.828 27.3516 21.507C27.0569 21.1859 26.7501 20.8363 26.4229 20.503C26.7501 20.1677 27.059 19.8202 27.3516 19.4991C27.6524 19.178 27.9247 18.863 28.1848 18.5562C27.7824 18.2818 27.3862 17.9892 27.0021 17.6823C26.7826 17.9424 26.5509 18.2026 26.3192 18.4688H26.3131C26.0185 18.7899 25.7055 19.1252 25.3763 19.4605L24.9394 19.0236L21.5435 15.6278C21.8789 15.3006 22.206 14.9917 22.5353 14.6909H22.5414C22.8076 14.4511 23.0677 14.2194 23.3197 13.9999C23.6814 13.6931 24.0371 13.3984 24.3785 13.1261C24.7544 12.8253 25.1101 12.553 25.4657 12.2929C25.8559 12.0124 26.2319 11.7523 26.5936 11.5064C29.142 9.81154 31.1641 9.0332 32.3123 8.69179C31.9708 9.83999 31.1925 11.8621 29.4976 14.4105C29.8797 14.7254 30.276 15.0181 30.6804 15.2924C33.6251 10.913 34.001 7.96019 34.0214 7.79558L34.1311 6.87296L33.2085 6.9827C33.0439 7.00302 30.0931 7.37898 25.7116 10.3237C25.3499 10.5635 24.9739 10.8216 24.5919 11.1101C24.2362 11.3703 23.8745 11.6426 23.5046 11.9433C23.1571 12.2157 22.8015 12.5103 22.4377 12.8253C22.1308 13.0773 21.8159 13.3578 21.5009 13.6524H21.4948C21.1676 13.9471 20.8384 14.2601 20.503 14.5893L20.4969 14.5832L20.4908 14.5893C20.1555 14.2621 19.8283 13.9471 19.4991 13.6524H19.493C19.178 13.3578 18.8651 13.0793 18.5562 12.8253C18.1944 12.5103 17.8388 12.2177 17.4893 11.9433C17.1194 11.6426 16.7577 11.3703 16.402 11.1101C16.02 10.8236 15.644 10.5635 15.2823 10.3237C10.9028 7.37898 7.95003 7.00302 7.78542 6.9827L6.86279 6.87296L6.97253 7.79558C6.99286 7.96019 7.36882 10.911 10.3135 15.2924C10.7159 15.0201 11.1122 14.7254 11.4962 14.4105C9.80138 11.8621 9.02304 9.83999 8.68163 8.69179C9.82983 9.0332 11.8519 9.81154 14.4003 11.5064C14.762 11.7523 15.138 12.0124 15.5282 12.2929C15.8838 12.553 16.2394 12.8253 16.6154 13.1261C16.9568 13.4004 17.3125 13.6931 17.6742 13.9999C17.9262 14.2194 18.1863 14.4511 18.4525 14.6909H18.4586C18.7858 14.9917 19.115 15.2985 19.4504 15.6278L16.0545 19.0236L15.6176 19.4605C15.2904 19.1252 14.9754 18.7899 14.6807 18.4688H14.6746C14.443 18.2026 14.2093 17.9424 13.9918 17.6823C13.6098 17.9892 13.2135 18.2839 12.8091 18.5562C13.0692 18.863 13.3415 19.178 13.6423 19.4991C13.9369 19.8202 14.2438 20.1698 14.571 20.503C14.2438 20.8384 13.9349 21.1859 13.6423 21.507C13.3415 21.828 13.0692 22.143 12.8091 22.4499C13.2114 22.7243 13.6077 23.0169 13.9918 23.3238C14.2113 23.0636 14.443 22.8035 14.6746 22.5373H14.6807C14.9754 22.2162 15.2884 21.8809 15.6176 21.5456L16.0545 21.9825L19.4504 25.3783C19.115 25.7055 18.7878 26.0144 18.4586 26.3152H18.4525C18.1863 26.555 17.9262 26.7867 17.6742 27.0061C17.3125 27.313 16.9568 27.6077 16.6154 27.88C16.2394 28.1808 15.8838 28.4531 15.5282 28.7132C15.138 28.9936 14.762 29.2538 14.4003 29.4997C11.8519 31.1945 9.82983 31.9729 8.68163 32.3143C9.02304 31.1661 9.80138 29.144 11.4962 26.5956C11.1142 26.2806 10.7179 25.988 10.3135 25.7136C7.36882 30.0931 6.99286 33.0459 6.97253 33.2105L6.86279 34.1331L7.78542 34.0234C7.95003 34.0031 10.9008 33.6271 15.2823 30.6824C15.644 30.4426 16.02 30.1845 16.402 29.896C16.7577 29.6358 17.1194 29.3635 17.4893 29.0627C17.8368 28.7904 18.1924 28.4958 18.5562 28.1808C18.863 27.9288 19.178 27.6483 19.493 27.3536H19.4991C19.8263 27.059 20.1555 26.746 20.4908 26.4168L20.4969 26.4229L20.503 26.4168C20.8384 26.744 21.1655 27.059 21.4948 27.3536H21.5009C21.8159 27.6483 22.1288 27.9267 22.4377 28.1808C22.7994 28.4958 23.1551 28.7884 23.5046 29.0627C23.8745 29.3635 24.2362 29.6358 24.5919 29.896C24.9739 30.1825 25.3499 30.4426 25.7116 30.6824C30.091 33.6271 33.0439 34.0031 33.2085 34.0234L34.1311 34.1331L34.0214 33.2105C34.001 33.0459 33.6251 30.0951 30.6804 25.7136V25.7136ZM20.944 23.9029L20.499 24.348L20.0539 23.9029L17.095 20.944L16.65 20.499L17.095 20.0539L20.0539 17.095L20.499 16.65L20.944 17.095L23.9029 20.0539L24.348 20.499L23.9029 20.944L20.944 23.9029Z" fill="#E5D540"/>
</g>
<path d="M51 29.7947V11.2053H53.8681V27.0328H62.5785V29.7947H51Z" fill="#EAEFF6"/>
<path d="M74.1597 30.0602C72.8496 30.0602 71.6368 29.8212 70.5215 29.3432C69.4238 28.8652 68.459 28.2013 67.6269 27.3515C66.8125 26.484 66.1751 25.4749 65.7148 24.3241C65.2722 23.1556 65.0509 21.8809 65.0509 20.5C65.0509 19.1191 65.2722 17.8532 65.7148 16.7025C66.1751 15.534 66.8125 14.5248 67.6269 13.675C68.459 12.8075 69.4238 12.1348 70.5215 11.6568C71.6368 11.1788 72.8496 10.9398 74.1597 10.9398C75.4698 10.9398 76.6737 11.1788 77.7713 11.6568C78.8867 12.1348 79.8516 12.8075 80.6659 13.675C81.498 14.5426 82.1354 15.5605 82.578 16.729C83.0383 17.8798 83.2685 19.1368 83.2685 20.5C83.2685 21.8632 83.0383 23.1291 82.578 24.2975C82.1354 25.4483 81.498 26.4574 80.6659 27.3249C79.8516 28.1924 78.8867 28.8652 77.7713 29.3432C76.6737 29.8212 75.4698 30.0602 74.1597 30.0602ZM74.1597 27.2718C75.0626 27.2718 75.8858 27.1036 76.6294 26.7673C77.3907 26.4309 78.0457 25.9617 78.5946 25.3598C79.1434 24.7401 79.5683 24.0231 79.8693 23.2087C80.1879 22.3766 80.3473 21.4737 80.3473 20.5C80.3473 19.5263 80.1879 18.6322 79.8693 17.8178C79.5683 16.9857 79.1434 16.2687 78.5946 15.6668C78.0457 15.0471 77.3907 14.5691 76.6294 14.2327C75.8858 13.8964 75.0626 13.7282 74.1597 13.7282C73.2568 13.7282 72.4247 13.8964 71.6634 14.2327C70.9198 14.5691 70.2648 15.0383 69.6982 15.6402C69.1494 16.2421 68.7245 16.9592 68.4236 17.7913C68.1226 18.6057 67.9721 19.5086 67.9721 20.5C67.9721 21.4737 68.1226 22.3766 68.4236 23.2087C68.7245 24.0408 69.1494 24.7578 69.6982 25.3598C70.2648 25.9617 70.9198 26.4309 71.6634 26.7673C72.4247 27.1036 73.2568 27.2718 74.1597 27.2718Z" fill="#EAEFF6"/>
<path d="M87.1517 29.7947V11.2053H94.4281C95.7559 11.2053 96.9509 11.4266 98.0131 11.8692C99.0931 12.3118 100.014 12.9492 100.775 13.7813C101.536 14.6134 102.121 15.5959 102.528 16.729C102.935 17.8621 103.138 19.1191 103.138 20.5C103.138 21.8809 102.935 23.1468 102.528 24.2975C102.121 25.4306 101.536 26.4132 100.775 27.2453C100.031 28.0597 99.1197 28.6882 98.0397 29.1308C96.9598 29.5734 95.7559 29.7947 94.4281 29.7947H87.1517ZM90.0197 27.3249L89.9401 27.0328H94.2953C95.2336 27.0328 96.0657 26.8823 96.7916 26.5814C97.5351 26.2804 98.1548 25.8555 98.6505 25.3067C99.1639 24.7401 99.5534 24.0497 99.819 23.2353C100.085 22.4209 100.217 21.5091 100.217 20.5C100.217 19.4909 100.085 18.5879 99.819 17.7913C99.5534 16.9769 99.1639 16.2864 98.6505 15.7199C98.1371 15.1533 97.5174 14.7196 96.7916 14.4186C96.0657 14.1177 95.2336 13.9672 94.2953 13.9672H89.8604L90.0197 13.7282V27.3249Z" fill="#EAEFF6"/>
<path d="M107.017 29.7947V11.2053H118.728V13.9672H109.885V27.0328H118.728V29.7947H107.017ZM108.318 21.6419V18.8801H117.268V21.6419H108.318Z" fill="#EAEFF6"/>
<path d="M129.065 30.0602C128.056 30.0602 127.118 29.9275 126.25 29.6619C125.401 29.3963 124.622 28.998 123.914 28.4669C123.223 27.918 122.603 27.2453 122.055 26.4486L124.02 24.1913C124.887 25.4306 125.719 26.2892 126.516 26.7673C127.313 27.2453 128.26 27.4843 129.358 27.4843C130.03 27.4843 130.641 27.3781 131.19 27.1656C131.739 26.9532 132.172 26.661 132.491 26.2893C132.81 25.9175 132.969 25.4926 132.969 25.0146C132.969 24.6959 132.916 24.3949 132.81 24.1116C132.704 23.8284 132.535 23.5717 132.305 23.3415C132.093 23.1114 131.81 22.8989 131.455 22.7042C131.119 22.5094 130.721 22.3412 130.26 22.1996C129.8 22.0403 129.269 21.9075 128.667 21.8013C127.711 21.6065 126.879 21.3498 126.171 21.0311C125.463 20.7124 124.87 20.3141 124.392 19.8361C123.914 19.3581 123.559 18.8181 123.329 18.2162C123.099 17.5965 122.984 16.9061 122.984 16.1448C122.984 15.4012 123.143 14.7107 123.462 14.0734C123.798 13.436 124.25 12.8872 124.816 12.4269C125.401 11.9489 126.082 11.586 126.861 11.3381C127.64 11.0725 128.481 10.9398 129.384 10.9398C130.34 10.9398 131.216 11.0637 132.013 11.3115C132.81 11.5594 133.518 11.9312 134.138 12.4269C134.757 12.9049 135.271 13.498 135.678 14.2062L133.66 16.1979C133.306 15.6137 132.907 15.1268 132.465 14.7373C132.022 14.3301 131.535 14.0291 131.004 13.8344C130.473 13.6219 129.906 13.5157 129.304 13.5157C128.614 13.5157 128.012 13.6219 127.499 13.8344C126.985 14.0468 126.578 14.3478 126.277 14.7373C125.994 15.1091 125.852 15.5517 125.852 16.0651C125.852 16.4369 125.923 16.7821 126.065 17.1008C126.206 17.4018 126.419 17.6762 126.702 17.924C127.003 18.1542 127.401 18.3666 127.897 18.5614C128.393 18.7384 128.986 18.8978 129.676 19.0394C130.65 19.2519 131.517 19.5263 132.279 19.8626C133.04 20.1813 133.686 20.562 134.217 21.0046C134.748 21.4472 135.147 21.9429 135.412 22.4917C135.696 23.0405 135.837 23.6336 135.837 24.271C135.837 25.4572 135.563 26.484 135.014 27.3515C134.465 28.219 133.686 28.8918 132.677 29.3698C131.668 29.8301 130.464 30.0602 129.065 30.0602Z" fill="#EAEFF6"/>
<path d="M143.433 29.7947V13.9672H138.228V11.2053H151.665V13.9672H146.301V29.7947H143.433Z" fill="#EAEFF6"/>
<path d="M151.941 29.7947L159.137 11.2053H162.059L169.202 29.7947H166.148L161.899 18.5879C161.846 18.464 161.74 18.163 161.581 17.685C161.439 17.207 161.271 16.6759 161.076 16.0917C160.881 15.5074 160.704 14.9763 160.545 14.4983C160.386 14.0026 160.279 13.6839 160.226 13.5423L160.837 13.5157C160.731 13.8167 160.598 14.1973 160.439 14.6576C160.297 15.1179 160.138 15.6048 159.961 16.1182C159.801 16.6316 159.642 17.1185 159.483 17.5788C159.323 18.0214 159.19 18.3932 159.084 18.6942L154.862 29.7947H151.941ZM155.127 25.1739L156.19 22.412H164.635L165.856 25.1739H155.127Z" fill="#EAEFF6"/>
<path d="M172.474 29.7947V11.2053H180.388C181.45 11.2053 182.423 11.4709 183.309 12.002C184.212 12.5154 184.929 13.2236 185.46 14.1265C185.991 15.0117 186.256 16.012 186.256 17.1274C186.256 18.1365 185.991 19.0748 185.46 19.9423C184.929 20.8098 184.22 21.5091 183.335 22.0403C182.45 22.5537 181.467 22.8104 180.388 22.8104H175.342V29.7947H172.474ZM183.521 29.7947L178.794 21.4029L181.742 20.739L187 29.8212L183.521 29.7947ZM175.342 20.0485H180.653C181.166 20.0485 181.627 19.9246 182.034 19.6768C182.441 19.4112 182.76 19.0571 182.99 18.6145C183.22 18.1542 183.335 17.6496 183.335 17.1008C183.335 16.4812 183.185 15.9412 182.884 15.4809C182.601 15.0029 182.193 14.6311 181.662 14.3655C181.149 14.0999 180.565 13.9672 179.91 13.9672H175.342V20.0485Z" fill="#EAEFF6"/>
<defs>
<clipPath id="clip0_121_1854">
<rect width="41" height="41" fill="white"/>
</clipPath>
</defs>
</svg>
